<?xml version="1.0" standalone="no"?>
<!DOCTYPE svg PUBLIC "-//W3C//DTD SVG 20010904//EN" "http://www.w3.org/TR/2001/REC-SVG-20010904/DTD/svg10.dtd">
<!-- Created using Krita: https://krita.org -->
<svg xmlns="http://www.w3.org/2000/svg" 
    xmlns:xlink="http://www.w3.org/1999/xlink"
    xmlns:krita="http://krita.org/namespaces/svg/krita"
    xmlns:sodipodi="http://sodipodi.sourceforge.net/DTD/sodipodi-0.dtd"
    width="72pt"
    height="72pt"
    viewBox="0 0 72 72">
<defs/>
<path id="shape0" transform="translate(1.4362517627684, 10.8400827620202)" fill="none" stroke="#000000" stroke-width="0.5625" stroke-linecap="square" stroke-linejoin="bevel" stroke-dasharray="2.25,1.125" d="M2.93897 61.1599C6.91645 52.2055 9.30293 46.7007 10.0984 44.6457C11.2917 41.5632 11.6894 40.5688 9.50181 38.7789C7.31419 36.9891 5.52433 35.8953 5.32546 32.1167C-1.23738 29.4319 -3.35041 15.0135 8.48258 7.05856C8.09726 6.61109 6.48971 1.8452 13.4876 0.00562109C24.0039 -0.200685 21.9314 5.36813 36.1509 0.893471C53.3203 -1.02898 66.5123 11.6989 75.7268 39.0772" sodipodi:nodetypes="czzccccc"/><path id="shape1" transform="translate(11.3291021287999, 34.0224626381571)" fill="none" stroke="#000000" stroke-width="0.5625" stroke-linecap="square" stroke-linejoin="bevel" stroke-dasharray="2.25,1.125" d="M0 1.78418C0.708984 0.94043 1.5293 0.345703 2.46094 0" sodipodi:nodetypes="cc"/><path id="shape2" transform="translate(5.11159752114868, 31.6406249975052)" fill="none" stroke="#000000" stroke-width="0.5625" stroke-linecap="square" stroke-linejoin="bevel" stroke-dasharray="2.25,1.125" d="M0.0387931 0C-0.0549569 0.996094 0.021215 1.86328 0.267309 2.60156" sodipodi:nodetypes="cc"/><path id="shape3" transform="translate(6.7617086377592, 42.8573003363856)" fill="none" stroke="#000000" stroke-width="0.5625" stroke-linecap="square" stroke-linejoin="bevel" stroke-dasharray="2.25,1.125" d="M0 0C4.30893 4.17635 16.4734 5.20386 36.4933 3.08254C42.6584 7.25889 47.9949 10.9381 52.5027 14.12" sodipodi:nodetypes="ccc"/><path id="shape4" transform="translate(59.4632612555883, 52.5026788343656)" fill="none" stroke="#000000" stroke-width="0.5625" stroke-linecap="square" stroke-linejoin="bevel" stroke-dasharray="2.25,1.125" d="M0 0C0.861786 11.0706 2.2539 17.9649 4.17635 20.6829" sodipodi:nodetypes="cc"/><path id="shape5" transform="translate(10.3853059570428, 55.4857855863182)" fill="none" stroke="#000000" stroke-width="0.5625" stroke-linecap="square" stroke-linejoin="bevel" stroke-dasharray="2.25,1.125" d="M1.54712 0C0.022422 13.7223 -0.375326 22.4396 0.353878 26.1519" sodipodi:nodetypes="cc"/>
</svg>
